:SAMPLES-PER-SECOND 30
:FULLY-SPECIFIED
:DEGREES
1911
root  4.83342 39.4079 7.91589 177.441 78.2792 -178.142
RightUpLeg  2.43335 -9.2431 0.503147
RightLeg  13.3584 -4.47123 1.04671
RightFoot  -10.2097 -0.0428292 -2.67374
RightToes  3.49245e-010 0 -3.6325e-017
Spine  10.4357 -0.524911 13.404
Spine1  6.55223 1.91348 -4.49152
HEad  -29.3905 1.23607 -5.83457
LeftShoulder1  -0.0114581 3.53701 -29.0962
LeftArm  -4.34894 14.8526 -41.407
LeftForeArm  24.0538 -11.4814 -7.13789
LeftHand  -0.0161265 6.69156 1.59312
RightShoulder  -0.506952 -5.07739 25.3781
RightArm  10.8054 3.65614 43.0491
RightForeArm  -1.47157 15.4857 5.13918
RightHand  -0.673443 4.45484 -8.19323
LeftUpLeg  -16.6849 -1.22707 3.27934
LeftLeg  29.5951 1.55001 1.32775
LeftFoot  -0.238414 0.283583 -2.9036
LeftToes  -2.21735e-009 9.83027e-011 -4.04511e-011
1912
root  5.80145 39.4232 7.84241 178.029 78.0135 -177.546
RightUpLeg  4.80172 -8.96652 0.691835
RightLeg  11.8963 -4.95552 1.03683
RightFoot  -10.8637 -0.063047 -2.52694
RightToes  3.49245e-010 0 -3.6325e-017
Spine  10.069 -0.355805 12.7957
Spine1  6.83884 1.84213 -4.41897
HEad  -28.899 1.58693 -5.90321
LeftShoulder1  -0.0133211 3.54082 -29.3279
LeftArm  -4.70981 16.1539 -40.7287
LeftForeArm  24.8767 -11.1768 -7.09246
LeftHand  -0.0301155 6.62947 0.597156
RightShoulder  -0.437808 -4.89414 24.6036
RightArm  9.59041 4.43247 43.1383
RightForeArm  -3.03296 17.9007 4.73754
RightHand  -0.829717 5.82177 -8.89166
LeftUpLeg  -16.0874 1.47912 2.29511
LeftLeg  19.7345 -1.30817 -0.115091
LeftFoot  -0.211685 0.368351 -3.7702
LeftToes  -2.21735e-009 9.83027e-011 -4.04511e-011
1913
root  6.77461 39.4415 7.76599 178.265 77.5521 -177.395
RightUpLeg  7.33163 -8.61415 0.825366
RightLeg  9.86666 -5.64448 1.09236
RightFoot  -11.3407 -0.0767063 -2.36955
RightToes  3.49245e-010 0 -3.6325e-017
Spine  9.71929 -0.329984 11.7652
Spine1  6.82454 1.67798 -4.65086
HEad  -28.1322 2.30248 -5.92377
LeftShoulder1  0.0331823 3.40881 -28.6769
LeftArm  -4.79022 17.7347 -40.4879
LeftForeArm  25.431 -10.9377 -7.13555
LeftHand  -0.035695 7.63337 0.336603
RightShoulder  -0.451922 -4.92444 24.9344
RightArm  9.06582 5.55962 42.6047
RightForeArm  -2.2566 19.803 4.65098
RightHand  -0.718527 4.67954 -8.5568
LeftUpLeg  -14.9676 4.2962 1.06875
LeftLeg  9.59666 -1.93841 -0.632389
LeftFoot  -0.495335 0.436908 -4.57094
LeftToes  -2.21735e-009 9.83027e-011 -4.04511e-011
1914
root  7.78433 39.3884 7.65057 178.586 76.853 -177.135
RightUpLeg  9.73692 -8.42332 0.927555
RightLeg  8.35559 -6.3481 1.21254
RightFoot  -12.1811 -0.0962695 -1.93218
RightToes  3.49245e-010 0 -3.6325e-017
Spine  8.81017 -0.332343 10.3808
Spine1  7.49661 1.34534 -4.18381
HEad  -27.4673 2.35542 -5.17038
LeftShoulder1  0.0423804 3.38185 -28.7147
LeftArm  -4.93802 18.4706 -39.9073
LeftForeArm  25.7469 -10.4611 -7.22198
LeftHand  -0.0200607 7.06593 1.1624
RightShoulder  -0.447096 -4.91197 24.8638
RightArm  8.08133 6.45012 42.7216
RightForeArm  -2.15842 21.0173 4.71344
RightHand  -0.763425 5.04877 -8.77175
LeftUpLeg  -13.4413 3.87636 0.548907
LeftLeg  0.301548 5.71352 -1.4451
LeftFoot  -0.622914 0.535394 -5.66174
LeftToes  -2.21735e-009 9.83027e-011 -4.04511e-011
1915
root  8.84714 39.213 7.45797 179.395 75.8712 -176.047
RightUpLeg  12.1729 -8.70928 0.872554
RightLeg  7.96402 -6.77187 1.62117
RightFoot  -13.715 -0.118714 -1.26045
RightToes  3.49245e-010 0 -3.6325e-017
Spine  8.22754 -0.426361 9.77188
Spine1  7.77448 1.11505 -4.10466
HEad  -26.9566 2.69138 -5.10244
LeftShoulder1  0.110261 3.18567 -28.4957
LeftArm  -5.30496 18.8105 -39.5383
LeftForeArm  26.9776 -9.9712 -7.22362
LeftHand  -0.0370049 7.61414 0.172685
RightShoulder  -0.502693 -5.08658 24.9433
RightArm  7.09575 6.64446 42.8424
RightForeArm  -1.57288 21.9085 4.79408
RightHand  -0.717208 4.63662 -8.5757
LeftUpLeg  -12.2896 3.04716 -0.288619
LeftLeg  -5.33513 14.7414 -2.42502
LeftFoot  -0.980995 0.574807 -6.29194
LeftToes  -2.21735e-009 9.83027e-011 -4.04511e-011
1916
root  9.97391 38.9558 7.24505 -178.818 74.6772 -174.061
RightUpLeg  14.0976 -8.95068 1.20298
RightLeg  8.60053 -7.37193 1.91763
RightFoot  -15.5004 -0.112754 -0.256693
RightToes  3.49245e-010 0 -3.6325e-017
Spine  7.33275 -0.430358 9.38002
Spine1  8.07614 0.930466 -3.73775
HEad  -26.2838 2.3607 -4.65942
LeftShoulder1  0.0980523 3.22301 -28.7177
LeftArm  -5.04312 18.1768 -38.7984
LeftForeArm  28.0396 -9.34814 -7.48136
LeftHand  -0.0433836 8.66151 0.0805633
RightShoulder  -0.514044 -5.12425 24.9062
RightArm  5.98622 5.94748 43.1878
RightForeArm  -0.607932 22.3819 4.81933
RightHand  -0.682946 4.25475 -8.48184
LeftUpLeg  -12.0074 2.65607 -0.914556
LeftLeg  -6.32869 21.2972 -3.07853
LeftFoot  -1.59983 0.646428 -7.37945
LeftToes  -2.21735e-009 9.83027e-011 -4.04511e-011
1917
root  11.129 38.7085 7.01612 -178.943 73.5605 -173.612
RightUpLeg  16.7092 -9.44799 0.921849
RightLeg  8.94534 -7.65351 2.36361
RightFoot  -17.0065 -0.0614587 1.12037
RightToes  3.49245e-010 0 -3.6325e-017
Spine  7.10594 -0.405405 8.15947
Spine1  8.27367 0.859161 -3.39864
HEad  -25.5842 1.86586 -3.9972
LeftShoulder1  0.0366661 3.39753 -28.5568
LeftArm  -5.057 17.6621 -38.3591
LeftForeArm  28.2556 -9.19774 -7.48168
LeftHand  -0.0472914 7.6378 -0.299434
RightShoulder  -0.558307 -5.24063 25.3825
RightArm  6.30229 5.05448 43.2419
RightForeArm  -1.48709 22.2437 4.83953
RightHand  -0.763791 5.04662 -8.77928
LeftUpLeg  -11.1242 3.14445 -1.64892
LeftLeg  -4.89215 23.5368 -3.58418
LeftFoot  0.211729 0.469581 -4.85908
LeftToes  -2.21735e-009 9.83027e-011 -4.04511e-011
1918
root  12.3456 38.6044 6.74865 178.466 73.0657 -175.93
RightUpLeg  19.3294 -10.7201 -0.708587
RightLeg  9.12324 -6.06253 2.5813
RightFoot  -17.4532 0.0227323 2.6258
RightToes  3.49245e-010 0 -3.6325e-017
Spine  6.38035 -0.151245 6.02836
Spine1  9.04015 1.075 -3.35199
HEad  -25.3323 1.99701 -3.89475
LeftShoulder1  -0.102716 3.79107 -29.5728
LeftArm  -4.12679 16.5423 -36.7652
LeftForeArm  27.5528 -9.41229 -7.73714
LeftHand  -0.0492547 8.90275 -0.00194026
RightShoulder  -0.564961 -5.25037 25.5806
RightArm  7.51069 4.26396 44.099
RightForeArm  -1.79375 20.4768 4.63019
RightHand  -0.756721 4.78617 -8.90193
LeftUpLeg  -11.2551 3.35432 -2.91138
LeftLeg  -1.26068 22.1237 -2.58216
LeftFoot  4.73403 -0.570082 3.59402
LeftToes  -2.21735e-009 9.83027e-011 -4.04511e-011
